<svg width="87" height="11" viewBox="0 0 87 11" fill="none" xmlns="http://www.w3.org/2000/svg">
<path d="M6.63 10V8.544H1.954V0.0879999H0.274V10H6.63ZM12.3698 9.006C11.1938 9.006 10.2978 8.166 10.1158 6.906H16.1078C16.1218 6.752 16.1358 6.542 16.1358 6.374C16.1358 4.176 14.5678 2.608 12.3558 2.608C10.1438 2.608 8.54778 4.176 8.54778 6.36C8.54778 8.642 10.1578 10.28 12.3978 10.28C13.9378 10.28 15.3518 9.44 15.7718 8.278L14.4558 7.844C14.1338 8.502 13.2798 9.006 12.3698 9.006ZM10.1158 5.786C10.3258 4.652 11.1658 3.882 12.3138 3.882C13.4898 3.882 14.3858 4.666 14.5538 5.786H10.1158ZM24.3915 3.952C23.7895 3.112 22.8515 2.608 21.7455 2.608C19.6595 2.608 18.1755 4.218 18.1755 6.444C18.1755 8.67 19.6595 10.28 21.7455 10.28C22.8515 10.28 23.7895 9.776 24.3915 8.936V10H25.9175V2.888H24.3915V3.952ZM22.0395 8.936C20.6815 8.936 19.6875 7.872 19.6875 6.444C19.6875 5.002 20.6815 3.952 22.0395 3.952C23.3975 3.952 24.3775 5.002 24.3775 6.444C24.3775 7.886 23.3975 8.936 22.0395 8.936ZM32.0334 2.636C31.2214 2.636 30.5354 3.07 30.1014 3.798V2.888H28.6314V10H30.1574V6.108C30.1574 4.848 30.8154 3.938 31.8374 3.938C32.1174 3.938 32.5514 4.008 32.9294 4.176V2.818C32.6354 2.706 32.3134 2.636 32.0334 2.636ZM38.8406 2.608C37.9166 2.608 37.0346 3.056 36.5306 3.798V2.888H35.0326V10H36.5586V5.912C36.5586 4.778 37.4406 3.952 38.5046 3.952C39.5686 3.952 40.1986 4.722 40.1986 5.772V10H41.7106V5.66C41.7106 3.896 40.5766 2.608 38.8406 2.608ZM49.3115 10H50.8375V5.828C50.8375 4.708 51.5095 3.952 52.5175 3.952C53.4975 3.952 54.1415 4.708 54.1415 5.828V10H55.6535V5.828C55.6535 4.736 56.3675 3.952 57.3615 3.952C58.3275 3.98 59.0135 4.75 59.0135 5.828V10H60.5255V5.702C60.5255 3.896 59.3495 2.622 57.6835 2.622C56.6615 2.622 55.7655 3.14 55.2755 3.952C54.8555 3.14 53.9175 2.608 52.8255 2.608C51.9715 2.608 51.2295 3.014 50.7815 3.7V2.888H49.3115V10ZM70.4735 6.444C70.4735 4.19 68.8775 2.608 66.6095 2.608C64.3275 2.608 62.7455 4.19 62.7455 6.444C62.7455 8.698 64.3275 10.28 66.6095 10.28C68.8775 10.28 70.4735 8.698 70.4735 6.444ZM68.9615 6.444C68.9615 7.886 67.9675 8.936 66.6095 8.936C65.2375 8.936 64.2575 7.886 64.2575 6.444C64.2575 5.002 65.2375 3.952 66.6095 3.952C67.9675 3.952 68.9615 5.002 68.9615 6.444ZM76.2483 2.636C75.4363 2.636 74.7503 3.07 74.3163 3.798V2.888H72.8463V10H74.3723V6.108C74.3723 4.848 75.0303 3.938 76.0523 3.938C76.3323 3.938 76.7663 4.008 77.1443 4.176V2.818C76.8503 2.706 76.5283 2.636 76.2483 2.636ZM82.3096 9.006C81.1336 9.006 80.2376 8.166 80.0556 6.906H86.0476C86.0616 6.752 86.0756 6.542 86.0756 6.374C86.0756 4.176 84.5076 2.608 82.2956 2.608C80.0836 2.608 78.4876 4.176 78.4876 6.36C78.4876 8.642 80.0976 10.28 82.3376 10.28C83.8776 10.28 85.2916 9.44 85.7116 8.278L84.3956 7.844C84.0736 8.502 83.2196 9.006 82.3096 9.006ZM80.0556 5.786C80.2656 4.652 81.1056 3.882 82.2536 3.882C83.4296 3.882 84.3256 4.666 84.4936 5.786H80.0556Z" fill="#4A99D3"/>
</svg>
